<?xml version="1.0" encoding="UTF-8" standalone="no"?>
<!-- Created with Inkscape (http://www.inkscape.org/) -->

<svg
   width="210mm"
   height="297mm"
   viewBox="0 0 210 297"
   version="1.1"
   id="svg1"
   xml:space="preserve"
   inkscape:version="1.4 (e7c3feb100, 2024-10-09)"
   sodipodi:docname="logos.svg"
   xmlns:inkscape="http://www.inkscape.org/namespaces/inkscape"
   xmlns:sodipodi="http://sodipodi.sourceforge.net/DTD/sodipodi-0.dtd"
   xmlns="http://www.w3.org/2000/svg"
   xmlns:svg="http://www.w3.org/2000/svg"><sodipodi:namedview
     id="namedview1"
     pagecolor="#ffffff"
     bordercolor="#000000"
     borderopacity="0.25"
     inkscape:showpageshadow="2"
     inkscape:pageopacity="0.0"
     inkscape:pagecheckerboard="0"
     inkscape:deskcolor="#d1d1d1"
     inkscape:document-units="mm"
     inkscape:zoom="0.52509696"
     inkscape:cx="417.06583"
     inkscape:cy="646.54726"
     inkscape:window-width="1920"
     inkscape:window-height="1025"
     inkscape:window-x="0"
     inkscape:window-y="0"
     inkscape:window-maximized="1"
     inkscape:current-layer="layer1" /><defs
     id="defs1" /><g
     inkscape:label="Layer 1"
     inkscape:groupmode="layer"
     id="layer1"><path
       id="path3"
       style="stroke-linecap:round;stroke-linejoin:round"
       d="M 104.4314,17.841669 A 32.008785,32.008785 0 0 0 75.321032,36.542853 c 0.05943,0.520535 -0.01349,1.251164 0.187068,1.68982 0.623443,0.75648 0.223265,1.896819 0.560173,2.790009 0.329913,-0.64585 0.185563,-2.127606 0.264583,-3.055626 0.13062,-1.09101 -0.165772,-2.507726 0.1757,-3.451986 0.210867,1.21977 0.02686,2.52172 0.444417,3.7052 0.497883,-0.05344 0.342041,-1.22302 0.680062,-1.5875 0.465672,1.21223 0.158813,2.852419 0.361219,4.189412 0.1574,-1.453853 0.150563,-2.9841 0.696081,-4.35736 0.481439,0.43326 0.0495,1.758983 0.256832,2.412773 0.195082,-1.27058 0.126794,-2.649558 0.681612,-3.831808 0.555168,0.08963 0.112647,1.224415 0.341581,1.645895 0.548867,0.78405 0.570374,-0.524082 0.73949,-0.870232 0.826201,-0.45151 0.869126,1.030512 1.117761,1.472262 0.471717,-0.6239 0.152082,-1.872861 0.346749,-2.687691 0.380956,0.76637 0.12293,2.088189 0.306958,3.028239 0.04197,1.22375 0.27889,-1.728205 0.485759,0.768945 0.111242,-0.56855 -0.01239,-1.830045 0.211873,-2.653585 0.270915,-0.2326 0.52138,-0.498421 0.49351,-0.993221 0.436973,0.32626 0.0721,1.591328 0.250114,2.193148 -0.02041,0.69564 0.277387,0.0045 0.544153,-0.09198 0.467911,0.94543 0.01796,2.261251 0.29869,3.321765 0.06106,0.65561 0.368037,-0.208089 0.355017,-0.448039 0.387299,-1.37604 -0.122904,-3.016201 0.492993,-4.275191 0.63032,1.26076 0.160335,2.97062 0.381889,4.37596 0.182732,-0.49801 0.135865,-1.556446 0.485758,-2.202966 0.584732,-0.47988 0.403526,0.951562 0.489376,1.243852 0.446146,0.65447 0.50019,1.515734 0.45837,2.348694 -0.249941,1.2155 0.10165,1.62418 1.226798,1.57768 0.416854,0.33376 0.493191,1.0688 1.187008,1.156 0.483036,-0.57689 0.06824,-1.91475 0.331763,-2.76365 -0.01403,-0.7244 0.648802,-0.44712 0.560172,0.12609 0.155977,-1.22111 0.0066,-2.50347 0.220142,-3.71037 0.496049,0.7153 0.357084,2.0275 0.610298,2.92747 0.193837,1.89802 0.296582,1.79551 0.341582,-0.14108 0.45844,0.3229 -0.02532,1.86115 0.867647,1.92185 0.26247,0.68171 1.047117,1.07479 1.060917,1.93735 0.20091,0.90001 0.598328,-0.35048 0.586528,-0.70383 0.36684,-1.22208 0.08749,-2.69322 0.618567,-3.816825 0.64995,0.479465 0.454444,1.815385 0.727604,2.567285 0.16613,0.37202 0.132118,1.88395 0.765328,1.54874 1.115332,-2.53374 0.373657,-5.533912 1.139462,-8.138002 0.54994,1.22629 0.18985,2.913979 0.34158,4.280359 0.25829,-2.15533 0.0255,-4.523047 0.75293,-6.561357 0.56503,0.73038 -0.25233,2.252173 0.56379,2.852023 0.18427,0.98819 1.241484,1.572964 1.422144,2.564184 0.67078,0.12381 0.20108,1.147379 0.70796,1.297083 1.07178,-0.515034 0.72322,1.20818 0.80202,1.72857 -0.003,0.91677 0.0902,0.0297 0.23099,-0.32918 0.43954,0.1593 0.10826,1.34929 0.26665,1.81798 0.0909,-0.2144 0.13384,-1.5824 0.24753,-2.204 0.39728,0.27302 0.005,1.48692 0.32143,2.0407 0.55284,-1.36603 0.27023,-3.271799 0.43357,-4.806939 0.29747,1.4451 0.0332,3.341219 0.30747,4.949569 0.0317,0.6703 0.30212,0.15331 0.28422,-0.21446 0.0432,-0.31488 -0.12518,-1.80312 0.46044,-1.06453 0.24844,0.57079 0.93115,-0.014 1.16995,0.47129 0.411,-0.51152 0.0146,-2.29576 0.74466,-3.023591 1.04502,-0.29152 0.6515,1.181371 0.84543,1.713591 0.36697,-0.32811 0.29941,-1.286456 0.34881,-1.829346 -0.0311,-2.37722 0.26694,-0.857638 0.37311,0.537952 0.0514,0.890704 0.43532,-0.398035 0.93586,-0.07906 0.90538,0.485134 0.35807,1.847064 1.04231,2.559534 0.35606,-2.568341 0.33638,-5.207453 0.66404,-7.791773 0.21246,-2.38719 0.2525,-0.06468 0.3297,0.998905 0.36537,0.90907 0.59024,1.94005 0.55294,2.99465 0.062,-1.74482 0.0925,-3.490587 0.13952,-5.235857 0.4343,2.00662 0.23477,4.499088 0.80047,6.637838 -0.01,0.567747 0.63671,0.893617 0.60151,0.151927 0.1146,-0.682328 0.20305,-3.684259 0.31213,-1.713589 0.22143,0.81875 -0.32304,2.252869 0.45682,2.773479 0.75907,0.81601 0.19446,2.27129 0.4377,3.30625 0.019,0.97335 0.50521,-1.38838 0.41651,0.24857 -0.0431,0.87527 0.22723,-0.12711 0.52503,-0.2713 0.4216,0.46301 0.34466,1.12488 0.40566,0.002 -0.079,-0.74512 0.42498,-0.27358 0.39688,0.18551 0.15809,-0.15245 -0.0683,-1.16771 0.31988,-1.56579 0.68636,0.17228 0.24098,1.42802 0.44648,1.97042 0.54371,-1.77746 0.0265,-4.28913 0.59325,-6.24923 0.678,0.3292 0.12632,1.65858 0.43149,2.31045 0.16218,0.7471 0.39992,-0.21388 0.41032,-0.47697 0.46297,0.56618 0.0221,1.9299 0.39739,2.71611 0.43708,-0.72791 0.20077,-2.09709 0.32401,-3.04477 0.0958,-0.662602 0.35928,0.33102 0.32608,0.52245 0.13016,-1.036534 -0.0373,-2.410896 0.27233,-3.540356 0.46782,-0.45158 0.32104,0.696221 0.59428,0.801501 1.09803,-0.51691 0.82059,1.16494 0.89659,1.74408 0.1337,-2.18188 0.001,-4.39566 0.23616,-6.56084 l 0.0475,-0.01654 c 0.35394,1.4927 0.23494,3.156106 0.42271,4.707206 0.0373,1.3563 0.22833,0.490707 0.31523,-0.384473 0.30813,0.53504 -0.0256,1.51138 0.30024,2.18333 0.4997,-0.46246 0.10913,-1.665731 0.38396,-2.350761 0.48524,-0.45814 0.3261,-1.196358 0.50281,-1.821078 0.57472,-0.26689 0.16029,-1.187211 0.70125,-1.437121 0.59519,2.15596 0.18817,4.562512 0.46663,6.801652 0.11472,-0.31037 0.2279,-1.095101 0.63666,-1.413351 0.19836,-0.7038 0.15958,-2.640377 0.41186,-0.834057 0.14962,0.87831 0.16781,-1.208392 0.27027,-1.470712 0.31393,-0.41286 0.17047,0.9731 0.23047,1.18184 0.0618,0.72392 0.0415,4.47095 0.15865,2.54868 0.038,-1.892018 0.37119,-3.186616 0.36019,-0.49868 0.0166,2.48001 0.16921,0.99064 0.32659,-0.630448 0.29583,0.903548 0.0171,2.254868 0.29094,3.320728 0.36722,0.52612 0.45135,1.19063 0.44235,1.87172 0.19057,0.9663 0.41281,-0.29914 0.42891,-0.62012 0.73752,-0.23369 0.33287,-1.44927 0.48214,-2.10168 0.003,-0.83954 0.39749,0.0669 0.35399,0.4067 0.10812,-0.30482 -0.0129,-1.45286 0.24391,-2.04277 0.22805,-0.701514 0.61738,0.19706 0.45424,0.53123 -0.20575,0.87548 1.04789,0.79013 1.01699,1.6061 0.13747,-2.32418 0.18362,-4.652649 0.27492,-6.978899 0.32389,1.90657 -0.008,4.295059 0.34985,6.350519 0.29409,0.0504 0.42487,0.38422 0.47077,0.75861 0.16905,0.79366 0.66671,0.23327 0.91157,-0.16795 0.53509,0.13887 0.014,1.27572 0.40204,1.71824 0.33228,-0.0204 0.17808,-1.08964 0.24598,-1.4366 0.0215,-0.21477 -0.0877,-1.83502 0.36122,-1.16892 0.20829,-0.59081 0.013,-1.67012 0.231,-2.411227 0.21205,-0.264196 0.29113,-0.577612 0.33848,-0.904337 A 32.008785,32.008785 0 0 0 104.4314,17.841669 Z M 75.089521,37.15832 a 32.008785,32.008785 0 0 0 -0.463537,1.242818 c 0.0265,0.468598 0.07119,0.934784 0.187585,1.391129 0.299709,-0.706954 0.269434,-1.695785 0.275952,-2.633947 z m 40.982519,15.276582 c -0.0336,-0.0122 -0.0548,0.41839 -0.0703,1.36271 -0.12199,0.27893 0.15132,1.4169 -0.25218,1.3193 -0.15304,-0.54399 -0.20108,-1.33289 -0.24288,-0.29559 0.0601,0.65887 -0.65857,0.65258 -0.69557,0.0775 -0.50581,0.2602 -0.20071,1.44218 -0.31367,2.00608 0.12372,0.98009 -0.42184,1.73575 -0.62374,2.61534 -0.74723,0.19033 -1.18573,0.90446 -1.20303,1.67535 -0.61337,0.24192 -0.2104,1.1281 -0.71313,1.43919 -0.5962,-1.50148 -0.24369,-3.39443 -0.41238,-5.02243 -0.13791,2.61859 -0.27523,5.23725 -0.41289,7.85585 -0.46658,-2.6272 -0.1083,-5.76955 -0.92553,-8.49509 -0.37142,0.4571 -0.21417,1.58788 -0.38602,2.23087 -0.30395,-0.71797 0.011,-1.89849 -0.33176,-2.75177 -0.50403,-0.0964 -0.18015,-1.23482 -0.68678,-1.00046 -0.007,0.66604 -0.83161,0.79877 -0.6041,1.58492 -0.0318,0.71455 -0.28911,0.11958 -0.46509,-0.15296 -0.538,0.25511 -0.1303,2.17422 -0.60306,0.70176 -0.32555,0.72139 0.13344,2.56678 -0.39378,3.55069 -0.59985,-0.79052 -0.25345,-2.15836 -0.40049,-3.13521 -0.0112,0.66107 0.0185,-2.45173 -0.1602,-1.18856 -0.20409,0.66091 -0.34448,-0.43864 -0.28318,-0.6289 -0.039,-0.6252 -0.0246,-2.38267 -0.23772,-0.89038 -0.20838,0.67028 -0.26625,-0.19347 -0.36535,-0.43615 -0.64113,0.74251 -0.0473,2.20605 -0.82837,3.01273 -0.46037,0.74596 -0.716,-0.7453 -1.233,-0.36276 -0.31562,0.1526 -0.26118,1.55369 -0.52813,0.8909 -0.11945,-0.69615 -0.0777,-2.39637 -0.1695,-2.32337 -0.19104,0.30678 0.0546,1.54823 -0.34313,1.53013 -0.0925,-0.46986 -0.071,-1.69631 -0.21084,-0.59117 -0.53122,0.95489 -0.47358,2.05514 -0.64906,3.098 -0.54887,-0.14475 -0.32664,-1.30739 -0.46819,-1.79989 -0.0249,-0.98831 -0.0347,-1.6932 -0.25993,-0.35915 -0.664944,0.77036 -0.0809,2.28215 -0.737944,3.19205 -0.54016,-0.0813 -0.7265,0.28316 -0.7245,0.79168 -0.51485,0.0645 -0.46618,0.74019 -0.55398,1.19941 -0.41919,-0.46585 -0.0133,-1.75084 -0.39532,-2.45928 -0.27482,0.47451 -0.16601,1.49536 -0.22531,2.15594 -0.1476,1.12175 0.25119,2.59654 -0.32453,3.56051 -0.527085,-2.05512 -0.15948,-4.3525 -0.298687,-6.48901 -0.19887,-1.05816 0.280897,-2.44076 -0.311609,-3.3569 -0.78137,0.22128 -0.652275,-0.62167 -0.802535,-1.1498 -0.61075,0.5523 -0.453074,1.87579 -0.572574,2.71301 -0.08203,0.70028 -0.24858,-0.1926 -0.52865,-0.0956 -0.67291,-0.7439 0.05635,-2.18921 -0.664043,-3.01635 -0.66165,0.008 -0.944531,-0.59436 -0.959631,-1.2299 -0.05982,0.0238 -0.149069,1.74091 -0.682129,1.03249 -0.25058,0.25051 -0.01689,1.15042 -0.236678,1.59732 -0.41322,0.2883 -0.29798,0.84629 -0.61805,1.20716 -0.630854,0.96329 0.08005,2.52058 -0.555005,3.5233 -0.642911,-0.93779 -0.175157,-2.41219 -0.432015,-3.53415 0.252098,-0.71466 -1.137828,-1.38006 -1.086238,-0.42943 -0.506182,0.22145 -0.407252,0.79212 -0.560173,1.23972 -0.716227,-1.04133 -0.530216,-2.65209 -0.862996,-3.88504 0.03465,0.18125 -0.124919,1.51195 -0.364319,0.55759 -0.335799,0.38992 -0.376859,1.79127 -0.546737,2.49959 -0.249203,0.82968 -0.12218,2.15768 -0.655257,2.74402 -0.05842,-0.71099 -0.611287,-0.3271 -0.511597,0.19792 -0.178721,0.88036 -0.392766,-0.8142 -0.406176,-1.00149 -0.06811,0.58275 0.07402,1.26341 -0.247014,1.78645 -0.734427,-0.14386 -0.39459,-1.53352 -0.758093,-2.10013 -0.346225,0.0935 -0.211532,1.34161 -0.293522,1.79421 -0.157726,1.43387 0.232416,3.1555 -0.379822,4.44572 -0.550691,-1.42878 0.0087,-3.2347 -0.408244,-4.74441 -0.451774,0.57567 -0.01269,2.06305 -0.435632,2.88458 -0.725418,-0.0693 -0.173752,-1.5153 -0.550354,-2.01332 -0.413395,0.048 -0.201389,1.12982 -0.317293,1.50947 -0.201467,0.72597 -0.210825,-0.83643 -0.518832,-0.12816 -0.598167,-0.54192 -0.0097,-1.85928 -0.411861,-2.60139 -0.574713,1.05235 0.0142,2.66489 -0.564307,3.73518 -0.666583,-1.6227 -0.263315,-3.6367 -0.750341,-5.36247 -0.354688,0.62716 -0.102811,2.16834 -0.339515,3.08302 -0.227018,-0.48023 -0.392004,-1.26957 -0.686263,-1.83607 0.158678,-0.58989 -0.373906,-0.35188 -0.489375,-0.75292 -0.215129,-1.20097 -0.138905,0.65344 -0.241846,1.10691 -0.198343,0.7914 -0.338934,-1.04727 -0.373104,-0.0171 -0.07991,1.1371 -0.39428,3.25636 -0.37052,0.83612 0.197906,-1.28532 -0.646108,-2.2223 -0.759127,-3.4556 -0.256336,-1.6563 -0.131082,1.52771 -0.252698,2.23707 -0.04845,0.71397 -0.423067,-0.218 -0.337447,-0.45734 -0.115486,0.96114 0.0096,2.251 -0.219624,3.31453 -0.112922,0.72689 -0.625693,0.0999 -0.699183,-0.28577 -0.224922,0.015 -0.320903,0.16688 -0.367936,0.37052 a 32.008785,32.008785 0 0 0 29.220956,18.99315 32.008785,32.008785 0 0 0 30.52527,-22.4901 c -0.0272,-0.3709 -0.0469,-0.77537 -0.0522,-1.12499 -0.10694,0.53377 0.006,1.26085 -0.36019,1.73013 -0.6305,-0.45786 -0.23958,-1.72475 -0.39842,-2.435 -0.0159,-1.29412 -0.10322,0.69763 -0.25838,1.09296 -0.38128,-0.19512 -0.0164,-2.0144 -0.43874,-0.7922 -0.48459,-0.10571 -0.057,-1.33188 -0.31471,-1.78801 -0.11844,-0.91303 -0.48537,-0.0642 -0.36948,0.34727 -0.0673,0.65632 -0.28017,-0.0371 -0.41858,-0.26045 -0.73901,-0.16098 -0.45818,1.20617 -0.61805,1.64641 -0.57968,0.76917 -0.37894,1.8914 -0.6134,2.77916 -0.3026,-2.44344 -0.15849,-5.06117 -0.51056,-7.55354 -0.0385,1.21477 -0.0427,2.43118 -0.11214,3.64474 -0.10995,0.90207 -0.45141,-0.43698 -0.45941,-0.69505 -0.12314,-0.84311 -0.18796,-0.13805 -0.34054,0.21394 -0.48252,-0.42316 -0.12583,-1.63296 -0.29404,-2.28307 -0.0579,-0.81751 -0.12653,2.26342 -0.21963,3.09335 -0.16238,0.82507 -0.27414,-0.67588 -0.23874,-0.85731 -0.0495,-2.00367 -0.14121,0.38601 -0.29662,1.15187 -0.38649,-0.24508 0.0146,-1.37068 -0.35399,-1.85777 -0.6146,0.60852 0.18604,2.10918 -0.63613,2.71922 -1.01444,0.1521 -0.30328,1.54256 -1.07746,1.92288 0.11174,0.69605 -0.58773,0.87249 -0.68213,1.48001 -0.37784,-1.13865 -0.11111,-2.71193 -0.84956,-3.86333 -0.0721,2.7662 -0.26518,5.52755 -0.42736,8.28942 -0.29128,-1.91236 -0.12339,-4.28315 -0.24081,-6.36861 -0.16631,1.23785 -0.14642,2.53874 -0.49816,3.73517 -0.45419,-1.42401 -0.0251,-3.28312 -0.30955,-4.83794 -0.091,-0.83032 -0.35145,0.13887 -0.36845,0.447 -0.84584,0.52714 -0.0293,1.97194 -0.69918,2.57297 -0.56955,1.02914 0.12346,2.75375 -0.50695,3.87056 -0.69169,-0.76722 -0.0146,-2.2826 -0.5178,-3.12797 -0.58711,-0.74947 -0.21398,-2.1018 -0.36845,-3.04736 -0.0159,-1.67905 -0.0997,1.1789 -0.21032,1.84588 -0.11559,0.77563 -0.22586,-0.10409 -0.30076,-0.40308 -0.47096,0.24365 -0.24776,1.35139 -0.47284,1.83969 -0.33826,-1.22733 -0.11994,-2.722 -0.24546,-4.03232 -0.0157,-2.3134 -0.14186,0.26553 -0.21446,1.24075 -0.23073,1.84327 -0.22232,-1.63395 -0.29972,-2.34766 -0.0418,0.20548 -0.11638,1.58798 -0.83354,1.97973 -0.81898,0.51569 -0.18765,1.82233 -0.85421,2.28668 -0.53708,-2.49509 -0.19064,-5.17375 -0.36536,-7.73234 -0.0488,-0.71049 -0.0941,1.13637 -0.1943,1.55391 -0.3674,-0.22113 -0.0279,-1.34317 -0.26562,-1.85364 -0.0866,-0.68925 -0.43463,-0.0862 -0.36793,0.29559 0.0762,0.7487 -0.35729,0.32336 -0.26459,-0.15864 -0.0658,-0.82642 -0.11211,-1.28129 -0.14572,-1.29347 z m 19.29908,5.31493 c -0.002,0.003 -0.007,0.10545 -0.009,0.11368 a 32.008785,32.008785 0 0 0 0.0119,-0.0558 c -0.001,-3.2e-4 -0.002,-0.0593 -0.003,-0.0579 z" /><g
       id="g3"
       transform="translate(0,-59.961148)"><text
         xml:space="preserve"
         style="font-style:normal;font-variant:normal;font-weight:bold;font-stretch:normal;font-size:19.7556px;font-family:Hack;-inkscape-font-specification:'Hack Bold';text-align:start;writing-mode:lr-tb;direction:ltr;text-anchor:start;fill:#000000;stroke:#000000;stroke-width:1;stroke-linecap:round;stroke-linejoin:round;stroke-dasharray:none"
         x="41.09816"
         y="166.04506"
         id="text1"><tspan
           sodipodi:role="line"
           id="tspan1"
           style="font-style:normal;font-variant:normal;font-weight:bold;font-stretch:normal;font-family:Hack;-inkscape-font-specification:'Hack Bold';fill:#000000;stroke:#000000;stroke-width:1;stroke-dasharray:none"
           x="41.09816"
           y="166.04506">SONICSPLIT.</tspan></text><text
         xml:space="preserve"
         style="font-style:normal;font-variant:normal;font-weight:bold;font-stretch:normal;font-size:11.2889px;font-family:Hack;-inkscape-font-specification:'Hack Bold';text-align:start;writing-mode:lr-tb;direction:ltr;text-anchor:start;fill:#000000;stroke:#000000;stroke-width:0.5;stroke-linecap:round;stroke-linejoin:round;stroke-dasharray:none"
         x="26.829325"
         y="179.54099"
         id="text3"><tspan
           sodipodi:role="line"
           id="tspan3"
           style="font-style:normal;font-variant:normal;font-weight:bold;font-stretch:normal;font-size:11.2889px;font-family:Hack;-inkscape-font-specification:'Hack Bold';fill:#000000;stroke:#000000;stroke-width:0.5;stroke-dasharray:none"
           x="26.829325"
           y="179.54099">BLIND SIGNAL SEPARATION</tspan></text></g><path
       id="path5"
       style="stroke-linecap:round;stroke-linejoin:round"
       d="m 104.43139,191.56854 a 32.008785,32.008785 0 0 0 -29.110363,18.70118 c 0.05943,0.52054 -0.01349,1.25116 0.187067,1.68982 0.623443,0.75648 0.223265,1.89682 0.560174,2.79001 0.329913,-0.64585 0.185563,-2.12761 0.264583,-3.05563 0.130619,-1.09101 -0.165772,-2.50772 0.1757,-3.45198 0.210867,1.21977 0.02686,2.52172 0.444417,3.7052 0.497883,-0.0534 0.342041,-1.22302 0.680062,-1.5875 0.465672,1.21223 0.158813,2.85242 0.361219,4.18941 0.1574,-1.45385 0.150563,-2.9841 0.696081,-4.35736 0.481439,0.43326 0.0495,1.75898 0.256832,2.41277 0.195082,-1.27058 0.126794,-2.64956 0.681612,-3.83181 0.555168,0.0896 0.112647,1.22442 0.341581,1.6459 0.548867,0.78405 0.570374,-0.52408 0.73949,-0.87023 0.826201,-0.45151 0.869126,1.03051 1.117761,1.47226 0.471717,-0.6239 0.152082,-1.87286 0.346749,-2.68769 0.380956,0.76637 0.12293,2.08819 0.306958,3.02824 0.04197,1.22375 0.27889,-1.72821 0.485759,0.76894 0.111242,-0.56855 -0.01239,-1.83004 0.211873,-2.65358 0.270915,-0.2326 0.52138,-0.49842 0.49351,-0.99322 0.436973,0.32626 0.0721,1.59132 0.250114,2.19314 -0.02041,0.69564 0.277387,0.004 0.544153,-0.092 0.467911,0.94543 0.01796,2.26126 0.29869,3.32177 0.06106,0.65561 0.368037,-0.20809 0.355017,-0.44804 0.387299,-1.37604 -0.122904,-3.0162 0.492993,-4.27519 0.63032,1.26076 0.160335,2.97062 0.381889,4.37596 0.182732,-0.49801 0.135865,-1.55645 0.485758,-2.20297 0.584732,-0.47988 0.403526,0.95157 0.489376,1.24386 0.446146,0.65447 0.50019,1.51573 0.45837,2.34869 -0.249941,1.2155 0.10165,1.62418 1.226798,1.57768 0.416854,0.33376 0.493191,1.0688 1.187008,1.156 0.483036,-0.57689 0.06824,-1.91475 0.331763,-2.76365 -0.01403,-0.7244 0.648802,-0.44712 0.560172,0.12609 0.155977,-1.22111 0.0066,-2.50347 0.220142,-3.71037 0.496049,0.7153 0.357084,2.0275 0.610298,2.92747 0.193837,1.89802 0.296582,1.79551 0.341582,-0.14108 0.45844,0.3229 -0.02532,1.86115 0.867647,1.92185 0.26247,0.68171 1.047117,1.07479 1.060917,1.93735 0.20091,0.90001 0.598328,-0.35048 0.586528,-0.70383 0.36684,-1.22208 0.08749,-2.69322 0.618567,-3.81683 0.64995,0.47947 0.454444,1.81539 0.727604,2.56729 0.16613,0.37202 0.132118,1.88395 0.765328,1.54874 1.115332,-2.53374 0.373657,-5.53391 1.139462,-8.138 0.54994,1.22629 0.18985,2.91398 0.34158,4.28036 0.25829,-2.15533 0.0255,-4.52305 0.75293,-6.56136 0.56503,0.73038 -0.25233,2.25217 0.56379,2.85202 0.18427,0.98819 1.241479,1.57297 1.422139,2.56419 0.67078,0.12381 0.20108,1.14738 0.70796,1.29708 1.07178,-0.51503 0.72322,1.20818 0.80202,1.72857 -0.003,0.91677 0.0902,0.0297 0.23099,-0.32918 0.43954,0.1593 0.10826,1.34929 0.26665,1.81798 0.0909,-0.2144 0.13384,-1.5824 0.24753,-2.204 0.39728,0.27302 0.005,1.48692 0.32143,2.0407 0.55284,-1.36603 0.27023,-3.2718 0.43357,-4.80694 0.29747,1.4451 0.0332,3.34122 0.30747,4.94957 0.0317,0.6703 0.30212,0.15331 0.28422,-0.21446 0.0432,-0.31488 -0.12518,-1.80312 0.46044,-1.06453 0.24844,0.57079 0.93115,-0.014 1.16995,0.47129 0.411,-0.51152 0.0146,-2.29576 0.74466,-3.02359 1.04502,-0.29152 0.6515,1.18137 0.84543,1.71359 0.36697,-0.32811 0.29941,-1.28646 0.34881,-1.82935 -0.0311,-2.37722 0.26694,-0.85763 0.37311,0.53796 0.0514,0.8907 0.43532,-0.39804 0.93586,-0.0791 0.90538,0.48513 0.35807,1.84706 1.04231,2.55953 0.35606,-2.56834 0.33638,-5.20745 0.66404,-7.79177 0.21246,-2.38719 0.2525,-0.0647 0.3297,0.9989 0.36537,0.90907 0.59024,1.94005 0.55294,2.99465 0.062,-1.74482 0.0925,-3.49059 0.13952,-5.23586 0.4343,2.00662 0.23477,4.49909 0.80047,6.63784 -0.01,0.56775 0.63671,0.89362 0.60151,0.15193 0.1146,-0.68233 0.20305,-3.68426 0.31213,-1.71359 0.22143,0.81875 -0.32304,2.25287 0.45682,2.77348 0.75907,0.81601 0.19446,2.27129 0.4377,3.30625 0.019,0.97335 0.50521,-1.38838 0.41651,0.24857 -0.0431,0.87527 0.22723,-0.12711 0.52503,-0.2713 0.4216,0.46301 0.34466,1.12488 0.40566,0.002 -0.079,-0.74512 0.42498,-0.27358 0.39688,0.18551 0.15809,-0.15245 -0.0683,-1.16771 0.31988,-1.56579 0.68636,0.17228 0.24098,1.42802 0.44648,1.97042 0.54371,-1.77746 0.0265,-4.28913 0.59325,-6.24923 0.678,0.3292 0.12632,1.65858 0.43149,2.31045 0.16218,0.7471 0.39992,-0.21388 0.41032,-0.47697 0.46297,0.56618 0.0221,1.9299 0.39739,2.71611 0.43708,-0.72791 0.20077,-2.09709 0.32401,-3.04477 0.0958,-0.6626 0.35928,0.33102 0.32608,0.52245 0.13016,-1.03653 -0.0373,-2.4109 0.27233,-3.54036 0.46782,-0.45158 0.32104,0.69622 0.59428,0.8015 1.09803,-0.51691 0.82059,1.16494 0.89659,1.74408 0.1337,-2.18188 10e-4,-4.39566 0.23616,-6.56084 l 0.0475,-0.0165 c 0.35394,1.4927 0.23494,3.15611 0.42271,4.70721 0.0373,1.3563 0.22833,0.49071 0.31523,-0.38447 0.30813,0.53504 -0.0256,1.51138 0.30024,2.18333 0.4997,-0.46246 0.10913,-1.66573 0.38396,-2.35076 0.48524,-0.45814 0.3261,-1.19636 0.50281,-1.82108 0.57472,-0.26689 0.16029,-1.18721 0.70125,-1.43712 0.59519,2.15596 0.18817,4.56251 0.46663,6.80165 0.11472,-0.31037 0.2279,-1.0951 0.63666,-1.41335 0.19836,-0.7038 0.15958,-2.64038 0.41186,-0.83406 0.14962,0.87831 0.16781,-1.20839 0.27027,-1.47071 0.31393,-0.41286 0.17047,0.9731 0.23047,1.18184 0.0618,0.72392 0.0415,4.47095 0.15865,2.54868 0.038,-1.89202 0.37119,-3.18662 0.36019,-0.49868 0.0166,2.48001 0.16921,0.99064 0.32659,-0.63045 0.29583,0.90355 0.0171,2.25487 0.29094,3.32073 0.36722,0.52612 0.45135,1.19063 0.44235,1.87172 0.19057,0.9663 0.41281,-0.29914 0.42891,-0.62012 0.73752,-0.23369 0.33287,-1.44927 0.48214,-2.10168 0.003,-0.83954 0.39749,0.0669 0.35399,0.4067 0.10812,-0.30482 -0.0129,-1.45286 0.24391,-2.04277 0.22805,-0.70151 0.61738,0.19706 0.45424,0.53123 -0.20575,0.87548 1.04789,0.79013 1.01699,1.6061 0.13747,-2.32418 0.18362,-4.65265 0.27492,-6.9789 0.32389,1.90657 -0.008,4.29506 0.34985,6.35052 0.29409,0.0504 0.42487,0.38422 0.47077,0.75861 0.16905,0.79366 0.66671,0.23327 0.91157,-0.16795 0.53509,0.13887 0.014,1.27572 0.40204,1.71824 0.33228,-0.0204 0.17808,-1.08964 0.24598,-1.4366 0.0215,-0.21477 -0.0877,-1.83502 0.36122,-1.16892 0.20829,-0.59081 0.013,-1.67012 0.231,-2.41123 0.21206,-0.26419 0.29114,-0.57761 0.33849,-0.90433 a 32.008785,32.008785 0 0 0 -29.96559,-20.77953 z m -29.341875,19.31665 a 32.008785,32.008785 0 0 0 -0.463537,1.24282 c 0.0265,0.46859 0.07119,0.93478 0.187585,1.39112 0.299709,-0.70695 0.269434,-1.69578 0.275952,-2.63394 z m 40.982515,15.27658 c -0.0336,-0.0122 -0.0548,0.41839 -0.0703,1.36271 -0.12199,0.27893 0.15132,1.4169 -0.25218,1.3193 -0.15304,-0.54399 -0.20108,-1.33289 -0.24288,-0.29559 0.0601,0.65887 -0.65857,0.65258 -0.69557,0.0775 -0.50581,0.2602 -0.20071,1.44218 -0.31367,2.00608 0.12372,0.98009 -0.42184,1.73575 -0.62374,2.61534 -0.74723,0.19033 -1.18573,0.90446 -1.20303,1.67535 -0.61337,0.24192 -0.2104,1.1281 -0.71313,1.43919 -0.5962,-1.50148 -0.24369,-3.39443 -0.41238,-5.02243 -0.13791,2.61859 -0.27523,5.23725 -0.41289,7.85585 -0.46658,-2.6272 -0.1083,-5.76955 -0.92553,-8.49509 -0.37142,0.4571 -0.21417,1.58788 -0.38602,2.23087 -0.30395,-0.71797 0.011,-1.89849 -0.33176,-2.75177 -0.50403,-0.0964 -0.18015,-1.23482 -0.68678,-1.00046 -0.007,0.66604 -0.83161,0.79877 -0.6041,1.58492 -0.0318,0.71455 -0.28911,0.11958 -0.46509,-0.15296 -0.538,0.25511 -0.1303,2.17422 -0.60306,0.70176 -0.32555,0.72139 0.13344,2.56678 -0.39378,3.55069 -0.59985,-0.79052 -0.25345,-2.15836 -0.40049,-3.13521 -0.0112,0.66107 0.0185,-2.45173 -0.1602,-1.18856 -0.20409,0.66091 -0.34448,-0.43864 -0.28318,-0.6289 -0.039,-0.6252 -0.0246,-2.38267 -0.23772,-0.89038 -0.20838,0.67028 -0.26625,-0.19347 -0.36535,-0.43615 -0.64113,0.74251 -0.0473,2.20605 -0.82837,3.01273 -0.46037,0.74596 -0.716,-0.7453 -1.233,-0.36276 -0.31562,0.1526 -0.26118,1.55369 -0.52813,0.8909 -0.11945,-0.69615 -0.0777,-2.39637 -0.1695,-2.32337 -0.19104,0.30678 0.0546,1.54823 -0.34313,1.53013 -0.0925,-0.46986 -0.071,-1.69631 -0.21084,-0.59117 -0.53122,0.95489 -0.47358,2.05514 -0.64906,3.098 -0.54887,-0.14475 -0.32664,-1.30739 -0.46819,-1.79989 -0.0249,-0.98831 -0.0347,-1.6932 -0.25993,-0.35915 -0.66494,0.77036 -0.0809,2.28215 -0.73794,3.19205 -0.54016,-0.0813 -0.7265,0.28316 -0.7245,0.79168 -0.51485,0.0645 -0.46618,0.74019 -0.55398,1.19941 -0.41919,-0.46585 -0.0133,-1.75084 -0.39532,-2.45928 -0.27482,0.47451 -0.16601,1.49536 -0.22531,2.15594 -0.1476,1.12175 0.25119,2.59654 -0.32453,3.56051 -0.527085,-2.05512 -0.15948,-4.3525 -0.298687,-6.48901 -0.19887,-1.05816 0.280897,-2.44076 -0.311609,-3.3569 -0.78137,0.22128 -0.652275,-0.62167 -0.802535,-1.1498 -0.61075,0.5523 -0.453074,1.87579 -0.572574,2.71301 -0.08203,0.70028 -0.24858,-0.1926 -0.52865,-0.0956 -0.67291,-0.7439 0.05635,-2.18921 -0.664043,-3.01635 -0.66165,0.008 -0.944531,-0.59436 -0.959631,-1.2299 -0.05982,0.0238 -0.149069,1.74091 -0.682129,1.03249 -0.25058,0.25051 -0.01689,1.15042 -0.236678,1.59732 -0.41322,0.2883 -0.29798,0.84629 -0.61805,1.20716 -0.630854,0.96329 0.08005,2.52058 -0.555005,3.5233 -0.642911,-0.93779 -0.175157,-2.41219 -0.432015,-3.53415 0.252098,-0.71466 -1.137828,-1.38006 -1.086238,-0.42943 -0.506182,0.22145 -0.407252,0.79212 -0.560173,1.23972 -0.716227,-1.04133 -0.530216,-2.65209 -0.862996,-3.88504 0.03465,0.18125 -0.124919,1.51195 -0.364319,0.55759 -0.335799,0.38992 -0.376859,1.79127 -0.546737,2.49959 -0.249203,0.82968 -0.12218,2.15768 -0.655257,2.74402 -0.05842,-0.71099 -0.611287,-0.3271 -0.511597,0.19792 -0.178721,0.88036 -0.392766,-0.8142 -0.406176,-1.00149 -0.06811,0.58275 0.07402,1.26341 -0.247014,1.78645 -0.734427,-0.14386 -0.39459,-1.53352 -0.758093,-2.10013 -0.346225,0.0935 -0.211532,1.34161 -0.293522,1.79421 -0.157726,1.43387 0.232416,3.1555 -0.379822,4.44572 -0.550691,-1.42878 0.0087,-3.2347 -0.408244,-4.74441 -0.451774,0.57567 -0.01269,2.06305 -0.435632,2.88458 -0.725418,-0.0693 -0.173752,-1.5153 -0.550354,-2.01332 -0.413395,0.048 -0.201389,1.12982 -0.317293,1.50947 -0.201467,0.72597 -0.210825,-0.83643 -0.518832,-0.12816 -0.598167,-0.54192 -0.0097,-1.85928 -0.411861,-2.60139 -0.574713,1.05235 0.0142,2.66489 -0.564307,3.73518 -0.666583,-1.6227 -0.263315,-3.6367 -0.750341,-5.36247 -0.354688,0.62716 -0.102811,2.16834 -0.339515,3.08302 -0.227018,-0.48023 -0.392004,-1.26957 -0.686263,-1.83607 0.158678,-0.58989 -0.373906,-0.35188 -0.489375,-0.75292 -0.215129,-1.20097 -0.138905,0.65344 -0.241846,1.10691 -0.198343,0.7914 -0.338934,-1.04727 -0.373104,-0.0171 -0.07991,1.1371 -0.39428,3.25636 -0.37052,0.83612 0.197906,-1.28532 -0.646108,-2.2223 -0.759127,-3.4556 -0.256336,-1.6563 -0.131082,1.52771 -0.252698,2.23707 -0.04845,0.71397 -0.423067,-0.218 -0.337447,-0.45734 -0.115486,0.96114 0.0096,2.251 -0.219624,3.31453 -0.112922,0.72689 -0.625693,0.0999 -0.699183,-0.28577 -0.224922,0.015 -0.320903,0.16688 -0.367936,0.37052 a 32.008785,32.008785 0 0 0 29.220952,18.99315 32.008785,32.008785 0 0 0 30.52528,-22.4901 c -0.0272,-0.3709 -0.0469,-0.77537 -0.0522,-1.12499 -0.10694,0.53377 0.006,1.26085 -0.36019,1.73013 -0.63051,-0.45786 -0.23958,-1.72475 -0.39843,-2.435 -0.0159,-1.29412 -0.10322,0.69763 -0.25838,1.09296 -0.38128,-0.19512 -0.0164,-2.0144 -0.43874,-0.7922 -0.48459,-0.10571 -0.057,-1.33188 -0.31471,-1.78801 -0.11844,-0.91303 -0.48537,-0.0642 -0.36948,0.34727 -0.0673,0.65632 -0.28017,-0.0371 -0.41858,-0.26045 -0.73901,-0.16098 -0.45818,1.20617 -0.61805,1.64641 -0.57968,0.76917 -0.37894,1.8914 -0.6134,2.77916 -0.3026,-2.44344 -0.15849,-5.06117 -0.51056,-7.55354 -0.0385,1.21477 -0.0427,2.43118 -0.11214,3.64474 -0.10995,0.90207 -0.45141,-0.43698 -0.45941,-0.69505 -0.12314,-0.84311 -0.18796,-0.13805 -0.34054,0.21394 -0.48252,-0.42316 -0.12583,-1.63296 -0.29404,-2.28307 -0.0579,-0.81751 -0.12653,2.26342 -0.21963,3.09335 -0.16238,0.82507 -0.27414,-0.67588 -0.23874,-0.85731 -0.0495,-2.00367 -0.14121,0.38601 -0.29662,1.15187 -0.38649,-0.24508 0.0146,-1.37068 -0.35399,-1.85777 -0.6146,0.60852 0.18604,2.10918 -0.63613,2.71922 -1.01444,0.1521 -0.30328,1.54256 -1.07746,1.92288 0.11174,0.69605 -0.58773,0.87249 -0.68213,1.48001 -0.37784,-1.13865 -0.11111,-2.71193 -0.84956,-3.86333 -0.0721,2.7662 -0.26518,5.52755 -0.42736,8.28942 -0.29128,-1.91236 -0.12339,-4.28315 -0.24081,-6.36861 -0.16631,1.23785 -0.14642,2.53874 -0.49816,3.73517 -0.45419,-1.42401 -0.0251,-3.28312 -0.30955,-4.83794 -0.091,-0.83032 -0.35145,0.13887 -0.36845,0.447 -0.84584,0.52714 -0.0293,1.97194 -0.69918,2.57297 -0.56955,1.02914 0.12346,2.75375 -0.50695,3.87056 -0.69169,-0.76722 -0.0146,-2.2826 -0.5178,-3.12797 -0.58711,-0.74947 -0.21398,-2.1018 -0.36845,-3.04736 -0.0159,-1.67905 -0.0997,1.1789 -0.21032,1.84588 -0.11559,0.77563 -0.22586,-0.10409 -0.30076,-0.40308 -0.47096,0.24365 -0.24776,1.35139 -0.47284,1.83969 -0.33826,-1.22733 -0.11994,-2.722 -0.24546,-4.03232 -0.0157,-2.3134 -0.14186,0.26553 -0.21446,1.24075 -0.23073,1.84327 -0.22232,-1.63395 -0.29972,-2.34766 -0.0418,0.20548 -0.11638,1.58798 -0.83354,1.97973 -0.81898,0.51569 -0.18765,1.82233 -0.85421,2.28668 -0.53708,-2.49509 -0.19064,-5.17375 -0.36536,-7.73234 -0.0488,-0.71049 -0.0941,1.13637 -0.1943,1.55391 -0.3674,-0.22113 -0.0279,-1.34317 -0.26562,-1.85364 -0.0866,-0.68925 -0.43463,-0.0862 -0.36793,0.29559 0.0762,0.7487 -0.35729,0.32336 -0.26459,-0.15864 -0.0658,-0.82642 -0.11211,-1.28129 -0.14572,-1.29347 z m 19.29909,5.31493 c -0.002,0.003 -0.007,0.10545 -0.009,0.11368 a 32.008785,32.008785 0 0 0 0.0119,-0.0558 c -0.001,-3.2e-4 -0.002,-0.0593 -0.003,-0.0579 z" /><path
       id="path6"
       style="stroke-linecap:round;stroke-linejoin:round"
       d="M 104.4314,17.841669 A 32.008785,32.008785 0 0 0 75.321032,36.542853 c 0.05943,0.520535 -0.01349,1.251164 0.187068,1.68982 0.623443,0.75648 0.223265,1.896819 0.560173,2.790009 0.329913,-0.64585 0.185563,-2.127606 0.264583,-3.055626 0.13062,-1.09101 -0.165772,-2.507726 0.1757,-3.451986 0.210867,1.21977 0.02686,2.52172 0.444417,3.7052 0.497883,-0.05344 0.342041,-1.22302 0.680062,-1.5875 0.465672,1.21223 0.158813,2.852419 0.361219,4.189412 0.1574,-1.453853 0.150563,-2.9841 0.696081,-4.35736 0.481439,0.43326 0.0495,1.758983 0.256832,2.412773 0.195082,-1.27058 0.126794,-2.649558 0.681612,-3.831808 0.555168,0.08963 0.112647,1.224415 0.341581,1.645895 0.548867,0.78405 0.570374,-0.524082 0.73949,-0.870232 0.826201,-0.45151 0.869126,1.030512 1.117761,1.472262 0.471717,-0.6239 0.152082,-1.872861 0.346749,-2.687691 0.380956,0.76637 0.12293,2.088189 0.306958,3.028239 0.04197,1.22375 0.27889,-1.728205 0.485759,0.768945 0.111242,-0.56855 -0.01239,-1.830045 0.211873,-2.653585 0.270915,-0.2326 0.52138,-0.498421 0.49351,-0.993221 0.436973,0.32626 0.0721,1.591328 0.250114,2.193148 -0.02041,0.69564 0.277387,0.0045 0.544153,-0.09198 0.467911,0.94543 0.01796,2.261251 0.29869,3.321765 0.06106,0.65561 0.368037,-0.208089 0.355017,-0.448039 0.387299,-1.37604 -0.122904,-3.016201 0.492993,-4.275191 0.63032,1.26076 0.160335,2.97062 0.381889,4.37596 0.182732,-0.49801 0.135865,-1.556446 0.485758,-2.202966 0.584732,-0.47988 0.403526,0.951562 0.489376,1.243852 0.446146,0.65447 0.50019,1.515734 0.45837,2.348694 -0.249941,1.2155 0.10165,1.62418 1.226798,1.57768 0.416854,0.33376 0.493191,1.0688 1.187008,1.156 0.483036,-0.57689 0.06824,-1.91475 0.331763,-2.76365 -0.01403,-0.7244 0.648802,-0.44712 0.560172,0.12609 0.155977,-1.22111 0.0066,-2.50347 0.220142,-3.71037 0.496049,0.7153 0.357084,2.0275 0.610298,2.92747 0.193837,1.89802 0.296582,1.79551 0.341582,-0.14108 0.45844,0.3229 -0.02532,1.86115 0.867647,1.92185 0.26247,0.68171 1.047117,1.07479 1.060917,1.93735 0.20091,0.90001 0.598328,-0.35048 0.586528,-0.70383 0.36684,-1.22208 0.08749,-2.69322 0.618567,-3.816825 0.64995,0.479465 0.454444,1.815385 0.727604,2.567285 0.16613,0.37202 0.132118,1.88395 0.765328,1.54874 1.115332,-2.53374 0.373657,-5.533912 1.139462,-8.138002 0.54994,1.22629 0.18985,2.913979 0.34158,4.280359 0.25829,-2.15533 0.0255,-4.523047 0.75293,-6.561357 0.56503,0.73038 -0.25233,2.252173 0.56379,2.852023 0.18427,0.98819 1.241484,1.572964 1.422144,2.564184 0.67078,0.12381 0.20108,1.147379 0.70796,1.297083 1.07178,-0.515034 0.72322,1.20818 0.80202,1.72857 -0.003,0.91677 0.0902,0.0297 0.23099,-0.32918 0.43954,0.1593 0.10826,1.34929 0.26665,1.81798 0.0909,-0.2144 0.13384,-1.5824 0.24753,-2.204 0.39728,0.27302 0.005,1.48692 0.32143,2.0407 0.55284,-1.36603 0.27023,-3.271799 0.43357,-4.806939 0.29747,1.4451 0.0332,3.341219 0.30747,4.949569 0.0317,0.6703 0.30212,0.15331 0.28422,-0.21446 0.0432,-0.31488 -0.12518,-1.80312 0.46044,-1.06453 0.24844,0.57079 0.93115,-0.014 1.16995,0.47129 0.411,-0.51152 0.0146,-2.29576 0.74466,-3.023591 1.04502,-0.29152 0.6515,1.181371 0.84543,1.713591 0.36697,-0.32811 0.29941,-1.286456 0.34881,-1.829346 -0.0311,-2.37722 0.26694,-0.857638 0.37311,0.537952 0.0514,0.890704 0.43532,-0.398035 0.93586,-0.07906 0.90538,0.485134 0.35807,1.847064 1.04231,2.559534 0.35606,-2.568341 0.33638,-5.207453 0.66404,-7.791773 0.21246,-2.38719 0.2525,-0.06468 0.3297,0.998905 0.36537,0.90907 0.59024,1.94005 0.55294,2.99465 0.062,-1.74482 0.0925,-3.490587 0.13952,-5.235857 0.4343,2.00662 0.23477,4.499088 0.80047,6.637838 -0.01,0.567747 0.63671,0.893617 0.60151,0.151927 0.1146,-0.682328 0.20305,-3.684259 0.31213,-1.713589 0.22143,0.81875 -0.32304,2.252869 0.45682,2.773479 0.75907,0.81601 0.19446,2.27129 0.4377,3.30625 0.019,0.97335 0.50521,-1.38838 0.41651,0.24857 -0.0431,0.87527 0.22723,-0.12711 0.52503,-0.2713 0.4216,0.46301 0.34466,1.12488 0.40566,0.002 -0.079,-0.74512 0.42498,-0.27358 0.39688,0.18551 0.15809,-0.15245 -0.0683,-1.16771 0.31988,-1.56579 0.68636,0.17228 0.24098,1.42802 0.44648,1.97042 0.54371,-1.77746 0.0265,-4.28913 0.59325,-6.24923 0.678,0.3292 0.12632,1.65858 0.43149,2.31045 0.16218,0.7471 0.39992,-0.21388 0.41032,-0.47697 0.46297,0.56618 0.0221,1.9299 0.39739,2.71611 0.43708,-0.72791 0.20077,-2.09709 0.32401,-3.04477 0.0958,-0.662602 0.35928,0.33102 0.32608,0.52245 0.13016,-1.036534 -0.0373,-2.410896 0.27233,-3.540356 0.46782,-0.45158 0.32104,0.696221 0.59428,0.801501 1.09803,-0.51691 0.82059,1.16494 0.89659,1.74408 0.1337,-2.18188 0.001,-4.39566 0.23616,-6.56084 l 0.0475,-0.01654 c 0.35394,1.4927 0.23494,3.156106 0.42271,4.707206 0.0373,1.3563 0.22833,0.490707 0.31523,-0.384473 0.30813,0.53504 -0.0256,1.51138 0.30024,2.18333 0.4997,-0.46246 0.10913,-1.665731 0.38396,-2.350761 0.48524,-0.45814 0.3261,-1.196358 0.50281,-1.821078 0.57472,-0.26689 0.16029,-1.187211 0.70125,-1.437121 0.59519,2.15596 0.18817,4.562512 0.46663,6.801652 0.11472,-0.31037 0.2279,-1.095101 0.63666,-1.413351 0.19836,-0.7038 0.15958,-2.640377 0.41186,-0.834057 0.14962,0.87831 0.16781,-1.208392 0.27027,-1.470712 0.31393,-0.41286 0.17047,0.9731 0.23047,1.18184 0.0618,0.72392 0.0415,4.47095 0.15865,2.54868 0.038,-1.892018 0.37119,-3.186616 0.36019,-0.49868 0.0166,2.48001 0.16921,0.99064 0.32659,-0.630448 0.29583,0.903548 0.0171,2.254868 0.29094,3.320728 0.36722,0.52612 0.45135,1.19063 0.44235,1.87172 0.19057,0.9663 0.41281,-0.29914 0.42891,-0.62012 0.73752,-0.23369 0.33287,-1.44927 0.48214,-2.10168 0.003,-0.83954 0.39749,0.0669 0.35399,0.4067 0.10812,-0.30482 -0.0129,-1.45286 0.24391,-2.04277 0.22805,-0.701514 0.61738,0.19706 0.45424,0.53123 -0.20575,0.87548 1.04789,0.79013 1.01699,1.6061 0.13747,-2.32418 0.18362,-4.652649 0.27492,-6.978899 0.32389,1.90657 -0.008,4.295059 0.34985,6.350519 0.29409,0.0504 0.42487,0.38422 0.47077,0.75861 0.16905,0.79366 0.66671,0.23327 0.91157,-0.16795 0.53509,0.13887 0.014,1.27572 0.40204,1.71824 0.33228,-0.0204 0.17808,-1.08964 0.24598,-1.4366 0.0215,-0.21477 -0.0877,-1.83502 0.36122,-1.16892 0.20829,-0.59081 0.013,-1.67012 0.231,-2.411227 0.21205,-0.264196 0.29113,-0.577612 0.33848,-0.904337 A 32.008785,32.008785 0 0 0 104.4314,17.841669 Z M 75.089521,37.15832 a 32.008785,32.008785 0 0 0 -0.463537,1.242818 c 0.0265,0.468598 0.07119,0.934784 0.187585,1.391129 0.299709,-0.706954 0.269434,-1.695785 0.275952,-2.633947 z m 40.982519,15.276582 c -0.0336,-0.0122 -0.0548,0.41839 -0.0703,1.36271 -0.12199,0.27893 0.15132,1.4169 -0.25218,1.3193 -0.15304,-0.54399 -0.20108,-1.33289 -0.24288,-0.29559 0.0601,0.65887 -0.65857,0.65258 -0.69557,0.0775 -0.50581,0.2602 -0.20071,1.44218 -0.31367,2.00608 0.12372,0.98009 -0.42184,1.73575 -0.62374,2.61534 -0.74723,0.19033 -1.18573,0.90446 -1.20303,1.67535 -0.61337,0.24192 -0.2104,1.1281 -0.71313,1.43919 -0.5962,-1.50148 -0.24369,-3.39443 -0.41238,-5.02243 -0.13791,2.61859 -0.27523,5.23725 -0.41289,7.85585 -0.46658,-2.6272 -0.1083,-5.76955 -0.92553,-8.49509 -0.37142,0.4571 -0.21417,1.58788 -0.38602,2.23087 -0.30395,-0.71797 0.011,-1.89849 -0.33176,-2.75177 -0.50403,-0.0964 -0.18015,-1.23482 -0.68678,-1.00046 -0.007,0.66604 -0.83161,0.79877 -0.6041,1.58492 -0.0318,0.71455 -0.28911,0.11958 -0.46509,-0.15296 -0.538,0.25511 -0.1303,2.17422 -0.60306,0.70176 -0.32555,0.72139 0.13344,2.56678 -0.39378,3.55069 -0.59985,-0.79052 -0.25345,-2.15836 -0.40049,-3.13521 -0.0112,0.66107 0.0185,-2.45173 -0.1602,-1.18856 -0.20409,0.66091 -0.34448,-0.43864 -0.28318,-0.6289 -0.039,-0.6252 -0.0246,-2.38267 -0.23772,-0.89038 -0.20838,0.67028 -0.26625,-0.19347 -0.36535,-0.43615 -0.64113,0.74251 -0.0473,2.20605 -0.82837,3.01273 -0.46037,0.74596 -0.716,-0.7453 -1.233,-0.36276 -0.31562,0.1526 -0.26118,1.55369 -0.52813,0.8909 -0.11945,-0.69615 -0.0777,-2.39637 -0.1695,-2.32337 -0.19104,0.30678 0.0546,1.54823 -0.34313,1.53013 -0.0925,-0.46986 -0.071,-1.69631 -0.21084,-0.59117 -0.53122,0.95489 -0.47358,2.05514 -0.64906,3.098 -0.54887,-0.14475 -0.32664,-1.30739 -0.46819,-1.79989 -0.0249,-0.98831 -0.0347,-1.6932 -0.25993,-0.35915 -0.664944,0.77036 -0.0809,2.28215 -0.737944,3.19205 -0.54016,-0.0813 -0.7265,0.28316 -0.7245,0.79168 -0.51485,0.0645 -0.46618,0.74019 -0.55398,1.19941 -0.41919,-0.46585 -0.0133,-1.75084 -0.39532,-2.45928 -0.27482,0.47451 -0.16601,1.49536 -0.22531,2.15594 -0.1476,1.12175 0.25119,2.59654 -0.32453,3.56051 -0.527085,-2.05512 -0.15948,-4.3525 -0.298687,-6.48901 -0.19887,-1.05816 0.280897,-2.44076 -0.311609,-3.3569 -0.78137,0.22128 -0.652275,-0.62167 -0.802535,-1.1498 -0.61075,0.5523 -0.453074,1.87579 -0.572574,2.71301 -0.08203,0.70028 -0.24858,-0.1926 -0.52865,-0.0956 -0.67291,-0.7439 0.05635,-2.18921 -0.664043,-3.01635 -0.66165,0.008 -0.944531,-0.59436 -0.959631,-1.2299 -0.05982,0.0238 -0.149069,1.74091 -0.682129,1.03249 -0.25058,0.25051 -0.01689,1.15042 -0.236678,1.59732 -0.41322,0.2883 -0.29798,0.84629 -0.61805,1.20716 -0.630854,0.96329 0.08005,2.52058 -0.555005,3.5233 -0.642911,-0.93779 -0.175157,-2.41219 -0.432015,-3.53415 0.252098,-0.71466 -1.137828,-1.38006 -1.086238,-0.42943 -0.506182,0.22145 -0.407252,0.79212 -0.560173,1.23972 -0.716227,-1.04133 -0.530216,-2.65209 -0.862996,-3.88504 0.03465,0.18125 -0.124919,1.51195 -0.364319,0.55759 -0.335799,0.38992 -0.376859,1.79127 -0.546737,2.49959 -0.249203,0.82968 -0.12218,2.15768 -0.655257,2.74402 -0.05842,-0.71099 -0.611287,-0.3271 -0.511597,0.19792 -0.178721,0.88036 -0.392766,-0.8142 -0.406176,-1.00149 -0.06811,0.58275 0.07402,1.26341 -0.247014,1.78645 -0.734427,-0.14386 -0.39459,-1.53352 -0.758093,-2.10013 -0.346225,0.0935 -0.211532,1.34161 -0.293522,1.79421 -0.157726,1.43387 0.232416,3.1555 -0.379822,4.44572 -0.550691,-1.42878 0.0087,-3.2347 -0.408244,-4.74441 -0.451774,0.57567 -0.01269,2.06305 -0.435632,2.88458 -0.725418,-0.0693 -0.173752,-1.5153 -0.550354,-2.01332 -0.413395,0.048 -0.201389,1.12982 -0.317293,1.50947 -0.201467,0.72597 -0.210825,-0.83643 -0.518832,-0.12816 -0.598167,-0.54192 -0.0097,-1.85928 -0.411861,-2.60139 -0.574713,1.05235 0.0142,2.66489 -0.564307,3.73518 -0.666583,-1.6227 -0.263315,-3.6367 -0.750341,-5.36247 -0.354688,0.62716 -0.102811,2.16834 -0.339515,3.08302 -0.227018,-0.48023 -0.392004,-1.26957 -0.686263,-1.83607 0.158678,-0.58989 -0.373906,-0.35188 -0.489375,-0.75292 -0.215129,-1.20097 -0.138905,0.65344 -0.241846,1.10691 -0.198343,0.7914 -0.338934,-1.04727 -0.373104,-0.0171 -0.07991,1.1371 -0.39428,3.25636 -0.37052,0.83612 0.197906,-1.28532 -0.646108,-2.2223 -0.759127,-3.4556 -0.256336,-1.6563 -0.131082,1.52771 -0.252698,2.23707 -0.04845,0.71397 -0.423067,-0.218 -0.337447,-0.45734 -0.115486,0.96114 0.0096,2.251 -0.219624,3.31453 -0.112922,0.72689 -0.625693,0.0999 -0.699183,-0.28577 -0.224922,0.015 -0.320903,0.16688 -0.367936,0.37052 a 32.008785,32.008785 0 0 0 29.220956,18.99315 32.008785,32.008785 0 0 0 30.52527,-22.4901 c -0.0272,-0.3709 -0.0469,-0.77537 -0.0522,-1.12499 -0.10694,0.53377 0.006,1.26085 -0.36019,1.73013 -0.6305,-0.45786 -0.23958,-1.72475 -0.39842,-2.435 -0.0159,-1.29412 -0.10322,0.69763 -0.25838,1.09296 -0.38128,-0.19512 -0.0164,-2.0144 -0.43874,-0.7922 -0.48459,-0.10571 -0.057,-1.33188 -0.31471,-1.78801 -0.11844,-0.91303 -0.48537,-0.0642 -0.36948,0.34727 -0.0673,0.65632 -0.28017,-0.0371 -0.41858,-0.26045 -0.73901,-0.16098 -0.45818,1.20617 -0.61805,1.64641 -0.57968,0.76917 -0.37894,1.8914 -0.6134,2.77916 -0.3026,-2.44344 -0.15849,-5.06117 -0.51056,-7.55354 -0.0385,1.21477 -0.0427,2.43118 -0.11214,3.64474 -0.10995,0.90207 -0.45141,-0.43698 -0.45941,-0.69505 -0.12314,-0.84311 -0.18796,-0.13805 -0.34054,0.21394 -0.48252,-0.42316 -0.12583,-1.63296 -0.29404,-2.28307 -0.0579,-0.81751 -0.12653,2.26342 -0.21963,3.09335 -0.16238,0.82507 -0.27414,-0.67588 -0.23874,-0.85731 -0.0495,-2.00367 -0.14121,0.38601 -0.29662,1.15187 -0.38649,-0.24508 0.0146,-1.37068 -0.35399,-1.85777 -0.6146,0.60852 0.18604,2.10918 -0.63613,2.71922 -1.01444,0.1521 -0.30328,1.54256 -1.07746,1.92288 0.11174,0.69605 -0.58773,0.87249 -0.68213,1.48001 -0.37784,-1.13865 -0.11111,-2.71193 -0.84956,-3.86333 -0.0721,2.7662 -0.26518,5.52755 -0.42736,8.28942 -0.29128,-1.91236 -0.12339,-4.28315 -0.24081,-6.36861 -0.16631,1.23785 -0.14642,2.53874 -0.49816,3.73517 -0.45419,-1.42401 -0.0251,-3.28312 -0.30955,-4.83794 -0.091,-0.83032 -0.35145,0.13887 -0.36845,0.447 -0.84584,0.52714 -0.0293,1.97194 -0.69918,2.57297 -0.56955,1.02914 0.12346,2.75375 -0.50695,3.87056 -0.69169,-0.76722 -0.0146,-2.2826 -0.5178,-3.12797 -0.58711,-0.74947 -0.21398,-2.1018 -0.36845,-3.04736 -0.0159,-1.67905 -0.0997,1.1789 -0.21032,1.84588 -0.11559,0.77563 -0.22586,-0.10409 -0.30076,-0.40308 -0.47096,0.24365 -0.24776,1.35139 -0.47284,1.83969 -0.33826,-1.22733 -0.11994,-2.722 -0.24546,-4.03232 -0.0157,-2.3134 -0.14186,0.26553 -0.21446,1.24075 -0.23073,1.84327 -0.22232,-1.63395 -0.29972,-2.34766 -0.0418,0.20548 -0.11638,1.58798 -0.83354,1.97973 -0.81898,0.51569 -0.18765,1.82233 -0.85421,2.28668 -0.53708,-2.49509 -0.19064,-5.17375 -0.36536,-7.73234 -0.0488,-0.71049 -0.0941,1.13637 -0.1943,1.55391 -0.3674,-0.22113 -0.0279,-1.34317 -0.26562,-1.85364 -0.0866,-0.68925 -0.43463,-0.0862 -0.36793,0.29559 0.0762,0.7487 -0.35729,0.32336 -0.26459,-0.15864 -0.0658,-0.82642 -0.11211,-1.28129 -0.14572,-1.29347 z m 19.29908,5.31493 c -0.002,0.003 -0.007,0.10545 -0.009,0.11368 a 32.008785,32.008785 0 0 0 0.0119,-0.0558 c -0.001,-3.2e-4 -0.002,-0.0593 -0.003,-0.0579 z" /><g
       id="g7"
       transform="translate(0,-59.961148)"><text
         xml:space="preserve"
         style="font-style:normal;font-variant:normal;font-weight:bold;font-stretch:normal;font-size:19.7556px;font-family:Hack;-inkscape-font-specification:'Hack Bold';text-align:start;writing-mode:lr-tb;direction:ltr;text-anchor:start;fill:#000000;stroke:#000000;stroke-width:1;stroke-linecap:round;stroke-linejoin:round;stroke-dasharray:none"
         x="41.09816"
         y="166.04506"
         id="text6"><tspan
           sodipodi:role="line"
           id="tspan6"
           style="font-style:normal;font-variant:normal;font-weight:bold;font-stretch:normal;font-family:Hack;-inkscape-font-specification:'Hack Bold';fill:#000000;stroke:#000000;stroke-width:1;stroke-dasharray:none"
           x="41.09816"
           y="166.04506">SONICSPLIT.</tspan></text><text
         xml:space="preserve"
         style="font-style:normal;font-variant:normal;font-weight:bold;font-stretch:normal;font-size:11.2889px;font-family:Hack;-inkscape-font-specification:'Hack Bold';text-align:start;writing-mode:lr-tb;direction:ltr;text-anchor:start;fill:#000000;stroke:#000000;stroke-width:0.5;stroke-linecap:round;stroke-linejoin:round;stroke-dasharray:none"
         x="26.829325"
         y="179.54099"
         id="text7"><tspan
           sodipodi:role="line"
           id="tspan7"
           style="font-style:normal;font-variant:normal;font-weight:bold;font-stretch:normal;font-size:11.2889px;font-family:Hack;-inkscape-font-specification:'Hack Bold';fill:#000000;stroke:#000000;stroke-width:0.5;stroke-dasharray:none"
           x="26.829325"
           y="179.54099">BLIND SIGNAL SEPARATION</tspan></text></g></g></svg>
